# xmcd CD database file
#
# Track frame offsets:
#	150
#	12522
#	26099
#	37251
#	50926
#	64153
#	78635
#	92514
#	105679
#	118471
#	131133
#	145702
#	159777
#	171286
#	183153
#	196290
#	208807
#	221712
#
# Disc length: 3137 seconds
#
# Revision: 0
# Processed by: cddbd v1.4PL0 Copyright (c) Steve Scherf et al.
# Submitted via: CDex 1.50
#
DISCID=130c3f12
DTITLE=Little Walter - Blues With A Feeling
DYEAR=1991
DGENRE=Blues
TTITLE0=Juke
TTITLE1=Can't Hold Out Much Longer
TTITLE2=Blue Midnight
TTITLE3=Boogie
TTITLE4=Mean Old World
TTITLE5=Bad Hours
TTITLE6=Don't Have To Hunt No More
TTITLE7=Tonight With A Fool
TTITLE8=Off The Wall
TTITLE9=Tell Me Mama
TTITLE10=Quarter To Twelve
TTITLE11=Blues With A Feeling
TTITLE12=Last Boogie
TTITLE13=To Late
TTITLE14=Fact Boogie
TTITLE15=Lights Out
TTITLE16=Fast Large One
TTITLE17=You're So Fine
EXTD=YEAR: 1991
EXTT0=
EXTT1=
EXTT2=
EXTT3=
EXTT4=
EXTT5=
EXTT6=
EXTT7=
EXTT8=
EXTT9=
EXTT10=
EXTT11=
EXTT12=
EXTT13=
EXTT14=
EXTT15=
EXTT16=
EXTT17=
PLAYORDER=
